<svg id="uuid-00bc6b03-2c0d-47bb-b3ae-bbfaf700c5da" xmlns="http://www.w3.org/2000/svg" viewBox="0 0 200.8 200.8"><g id="uuid-985a7362-ce04-4487-a146-7e6261b1baaa"><g id="uuid-51a53d40-4106-4618-afef-a90e3a1af15d"><rect id="uuid-17d2d126-684f-4bc2-91f5-08e151cbb9e5" x="11.6797" y="10.9961" width="178.9053" height="178.9062" style="fill:none; stroke-width:0px;"/><g id="uuid-0512632e-760d-4427-b6a3-80fa4c7c8625"><path id="uuid-9aa2a45c-f1da-49c8-9a61-4210678c2789" d="M97.2881,14.7788C49.9727,14.7788,11.6279,53.1265,11.6279,100.4375s38.3467,85.6719,85.6602,85.6719c2.289,0,4.5586-.0869,6.8037-.2637-44.1328-3.4678-78.8701-40.3848-78.8701-85.4082S59.959,18.5068,104.0918,15.04c-2.2451-.1767-4.5147-.2656-6.8037-.2656v.0044Z" style="fill:#d5b04f; stroke-width:0px;"/><path id="uuid-8484e694-a0fb-4a8e-b781-d7956e0cb391" d="M84.9375,15.666c-5.4736.79-10.7744,2.0986-15.8623,3.8726,3.6269.2143,7.9531.3427,12.6143.3574,4.6865-1.6992,9.5605-3.0078,14.5888-3.8726-3.292-.1963-7.1601-.3222-11.3408-.3574ZM69.1563,25.48c-5.2491,0-10.0899.1494-14.0586.3984-1.6905.958-3.3438,1.9688-4.96,3.0361,3.1406.3487,7.501.6075,12.5186.7295,2.1787-1.4868,4.4208-2.8794,6.7373-4.164h-.2373ZM54.1689,35.3208c-4.9609.0444-9.4716.2241-13.0898.4907-1.1016.959-2.1846,1.9439-3.2363,2.957,3.2412.3497,7.7324.6026,12.8652.7164,1.46-1.4424,2.9746-2.8296,4.5352-4.1641-.3575.0015-.7217-.0029-1.0743,0h0ZM43.8516,45.1352c-4.6241.0411-8.8619.1993-12.3472.4375-.8643,1.0342-1.6914,2.0938-2.5073,3.1695,3.476.3115,8.0342.5317,13.1435.6103,1.0703-1.4384,2.1719-2.851,3.3282-4.2173-.5411-.0019-1.086-.0053-1.6172,0ZM38.2949,54.9487c-5.1826.0098-9.9531.1592-13.8467.4116-.6679,1.0772-1.3154,2.167-1.9355,3.2754,3.6079.2891,8.1938.4883,13.2876.544.7925-1.4375,1.6235-2.8457,2.4946-4.231h0ZM30.3765,64.7764c-4.003,0-7.772.0869-11.1006.2382-.5528,1.2168-1.0674,2.4541-1.5645,3.7002,3.689.1983,8.0166.3057,12.666.3057.2681,0,.5293.001.7959,0,.563-1.4307,1.1661-2.8398,1.8028-4.2314-.8535-.0079-1.7207-.0127-2.5987-.0127h-.0009ZM24.1304,74.6035c-3.0269,0-5.9087.0576-8.5811.1455-.4043,1.2881-.7695,2.5987-1.1138,3.9131,2.9717.1133,6.2452.1856,9.6949.1856,1.312,0,2.5903-.0098,3.8457-.0274.3667-1.4082.7719-2.7978,1.207-4.1768-1.6309-.0312-3.3188-.04-5.0527-.04h0ZM16.6499,84.4307c-1.2124.0107-2.374.04-3.5273.0664-.2559,1.3574-.4727,2.7187-.6631,4.0976,2.1186.0537,4.3452.0801,6.6577.0801,2.4082,0,4.7256-.0361,6.9228-.0928.188-1.3584.4121-2.708.6631-4.0459-2.3901-.0683-4.9331-.1054-7.5859-.1054-.8359,0-1.6519-.0069-2.4673,0ZM19.1172,94.2451c-2.5337,0-4.9727.0283-7.2681.0928-.0947,1.3418-.1538,2.6855-.1855,4.0449,2.351.0664,4.8501.1065,7.4536.1065,2.126,0,4.1748-.0225,6.1401-.0665.0313-1.3818.0889-2.748.1861-4.1113-2.0215-.0488-4.1329-.0664-6.3262-.0664ZM19.1172,104.0713c-2.5835,0-5.0659.042-7.4009.1064.0586,1.3575.145,2.7061.2656,4.045,2.2574.0605,4.6509.0937,7.1353.0937,2.2456,0,4.4067-.0312,6.4712-.0801-.1221-1.3554-.2202-2.7256-.2788-4.0986-1.981-.0459-4.0469-.0664-6.1934-.0664h.001ZM19.1172,113.8984c-2.2271,0-4.3706.0303-6.419.0811.2193,1.3818.4717,2.751.7554,4.1103,1.8208.0391,3.7095.0528,5.6636.0528,2.7822,0,5.4414-.042,7.9311-.1192-.2778-1.333-.541-2.6767-.7558-4.0322-2.2696-.0605-4.6763-.0928-7.1748-.0928h-.0005ZM16.6499,123.7266c-.6191.0048-1.1982.0175-1.8027.0263.3984,1.4131.8305,2.8213,1.2988,4.2051.9751.0107,1.9639.0117,2.9712.0117,3.7939,0,7.3711-.0742,10.5698-.2109-.4287-1.2754-.8369-2.5576-1.207-3.8613-2.8828-.1045-6.0435-.1709-9.3628-.1709-.8359,0-1.6519-.0069-2.4673,0h0ZM26,133.542c-2.6924,0-5.272.0351-7.6919.1045.5776,1.373,1.1846,2.7363,1.8301,4.0713,1.8808.042,3.8359.0664,5.8618.0664,2.7026,0,5.29-.0352,7.7188-.1055-.6465-1.3379-1.253-2.6973-1.8301-4.0723-1.8897-.04-3.8535-.0644-5.8887-.0644ZM28.5068,143.3672c-1.8354,0-3.6128.0195-5.331.0527.8237,1.419,1.6982,2.8135,2.5986,4.1797.897.0068,1.8081.0117,2.7324.0117,3.857,0,7.4917-.0859,10.7295-.2256-.8359-1.2734-1.6455-2.5644-2.414-3.8857-2.5977-.083-5.3887-.1328-8.3155-.1328h0ZM39.7666,153.1953c-3.5024,0-6.8203.0684-9.8276.1856,1.0717,1.3603,2.1914,2.6845,3.3423,3.9775,2.0683.0508,4.2343.081,6.4853.081,2.4707,0,4.8486-.0322,7.0947-.0927-1.1904-1.3399-2.3418-2.7139-3.4482-4.125-1.1924-.0157-2.4033-.0264-3.6465-.0264h0ZM46.0137,163.0088c-2.4805,0-4.8701.0312-7.1231.0928,1.541,1.4375,3.1319,2.8183,4.7744,4.1386.7725.0069,1.5567.0127,2.3487.0127,3.9551,0,7.6797-.0791,10.9804-.2256-1.5556-1.2617-3.0722-2.5713-4.5361-3.9384-2.0566-.0498-4.209-.0801-6.4453-.0801h.001ZM61.6621,172.8369c-3.5225,0-6.8594.0674-9.8799.1846,2.3194,1.459,4.7119,2.8115,7.1739,4.0449.8896.0107,1.7929.0137,2.706.0137,3.7686,0,7.3223-.0762,10.5039-.2129-2.4131-1.2246-4.7676-2.5645-7.043-4.0049-1.1318-.0137-2.2832-.0254-3.4609-.0254h0ZM82.6035,182.6641c-3.1504,0-6.1514.0634-8.9121.1591,7.4971,2.1436,15.4219,3.2901,23.6074,3.2901,1.918,0,3.8155-.0635,5.7022-.1875.2636-.0362.5176-.0674.7549-.1065-5.795-.4785-11.4297-1.541-16.8418-3.1172-1.4014-.0205-2.8379-.038-4.3106-.038h0Z" style="fill:#c89c31; stroke-width:0px;"/><path id="uuid-e9f2b6bf-5774-4804-a77b-2a88ba5087e9" d="M190.5469,100.4443c0,47.3155-38.3565,85.6709-85.669,85.6709S19.207,147.7578,19.207,100.4443,57.5635,14.7754,104.8779,14.7754s85.669,38.3564,85.669,85.6689Z" style="fill:#eed175; stroke-width:0px;"/><path id="uuid-9a13a1fb-3815-4fd2-b87e-8fea60270cd2" d="M188.3838,101.0752c0,46.1045-37.377,83.4795-83.4815,83.4795S21.4224,147.1797,21.4224,101.0752,58.7988,17.5952,104.9023,17.5952s83.4815,37.3755,83.4815,83.48Z" style="fill:#c89c31; stroke-width:0px;"/><path id="uuid-968e8001-7243-481d-acba-f4a7d0b4a14c" d="M185.6914,101.2685c0,44.6309-36.1816,80.8125-80.8135,80.8125S24.0649,145.8994,24.0649,101.2685,60.2451,20.4551,104.8779,20.4551s80.8135,36.1811,80.8135,80.8134Z" style="fill:#ebc859; stroke-width:0px;"/><path id="uuid-2eafeca6-fb54-4c05-9df8-7bbdd4379f04" d="M46.1475,45.0513c-30.6524,32.4409-30.0777,83.4135,2.3632,114.0688,8.7608,8.2774,18.2061,15.2412,29.7901,18.3399-7.1153-3.6856-13.1631-8.75-19.2803-14.5284-35.1924-33.2548-36.8267-88.6689-3.6572-123.771,3.2012-3.3886,6.7832-5.8525,10.3633-8.6142-7.0274,3.917-13.7598,8.3471-19.5791,14.5049Z" style="fill:#d2aa48; stroke-width:0px;"/><path id="uuid-32dd227e-ae91-4cb8-b35d-b3c148205f3d" d="M153.9023,165.7519c35.5352-27.0039,42.459-77.7021,15.4551-113.2363-7.2929-9.5967-16.3291-17.0962-26.3115-22.4145,6.4189,4.7973,12.2998,10.5517,17.3906,17.2509,29.2959,38.5494,21.8653,93.4898-16.5869,122.7085-3.7109,2.8213-7.5762,5.294-11.5576,7.4356,7.5723-2.7188,14.8643-6.6162,21.6103-11.7422v-.002Z" style="fill:#f7e587; stroke-width:0px;"/><path id="uuid-66cc3e13-8245-4ddd-a591-73748900f091" d="M107.7705,20.7759c-15.2656,0-29.1435,1.497-42.8076,10.3701-21.3193,13.8423-33.5469,40.9067-33.5469,68.7251,0,6.7197.8257,13.2392,2.3662,19.4668,14.7901,18.5508,32.9805,20.9238,53.1983,20.9238,42.3554,0,75.8047-35.0215,75.8047-78.5185,0-6.7071-1.0625-12.8536-2.5987-19.0713-13.7021-13.1367-32.1963-21.897-52.4209-21.897l.0049.001Z" style="fill:#f7e587; isolation:isolate; opacity:.5; stroke-width:0px;"/><path id="uuid-9548b9da-e580-4a2e-8215-1fdf9a7916d3" d="M84.2158,88.7207v-4.0947s12.9287-6.4551,17.1641-11.3262c6.1885-7.1162,7.6416-16.7681,9.3154-25.7974,1.1641-6.2817,2.0274-11.8769,6.5186-13.4614,1.2998-.459,4.373,2.8286,4.373,2.8286,0,0-4.0654-.8808-5.2109,3.854-1.0401,4.3033-2.501,10.4698-3.3653,15.0157-1.2002,6.3105-3.1611,13.3212-7.4658,18.415-5.622,6.6514-21.3291,14.5664-21.3291,14.5664h0Z" style="fill:#b58a32; stroke-width:0px;"/><path id="uuid-6d1099d5-7819-4650-bbe3-52de6621b329" d="M125.4678,76.5107s14.3213-.9697,21.5332,1.17c4.6347,1.375,9.1201,2.289,10.7168,6.4863,1.0293,2.706-.6465,8.0752-.6465,8.0752,0,0-.2412-4.085-1.4844-5.7559-2.2158-2.9814-6.2607-4.3506-9.8564-5.2832-6.7207-1.7441-20.5127-.9463-20.5127-.9463l.25-3.7461Z" style="fill:#b58a32; stroke-width:0px;"/><path id="uuid-ef399565-0d93-4270-ad50-d0137ce4dcc2" d="M143.1221,99.3818s-1.3975-2.7216-.3701-3.7129c1.997-1.9287,6.1357-.6484,8.9384-1.4834,2.4424-.7246,4.9776-2.7539,4.9776-2.7539l-2.8008,4.6905-10.7451,3.2597Z" style="fill:#b58a32; stroke-width:0px;"/><path id="uuid-94e8925c-2928-4f2b-9654-16fdd8e0efaf" d="M145.0322,115.6689s-.5332-1.3769.6309-2.4423c2.5508-2.3418,6.0625-.2989,10.2148-1.4991,1.4258-.4131,3.875-1.4052,4.4502-2.3261.751-1.2071.3789,3.2168-.6308,4.2197-3.5059,3.4736-14.6651,2.0478-14.6651,2.0478h0Z" style="fill:#b58a32; stroke-width:0px;"/><path id="uuid-fcba9027-17d9-4276-b6d1-3f01dc648e03" d="M141.8486,132.5059s-.7246-1.711.2364-2.7588c2.1132-2.3096,5.7724-.4121,9.0341-1.2793,1.5391-.4082,4.6075-2.1524,4.6075-2.1524l-2.3975,5.0567-11.4805,1.1338Z" style="fill:#b58a32; stroke-width:0px;"/><path id="uuid-86b33f0d-0cb7-4675-84ad-238d1efbd5d7" d="M84.2998,139.1465l.0352-3.2334s12.6279-.9053,19.7509,2.4365c6.7862,3.1875,13.0235,5.0195,19.7237,5.1856,5.2871.1308,13.8867-1.46,19.166-3.4698,3.1553-1.2002,4.7646-3.3965,4.7646-3.3965l-1.623,5.1592s-11.4736,4.3067-17.5029,4.8887c-5.8809.5664-11.9034-.1113-17.6631-1.4199-5.4356-1.2334-10.1377-4.9375-15.6114-5.9932-3.6142-.6953-11.038-.1572-11.038-.1572h-.002Z" style="fill:#b58a32; stroke-width:0px;"/><path id="uuid-bacc1549-916f-4a7c-82c2-49db655c3119" d="M84.4297,88.2119l.3974,3.6533s10.3204-3.8603,14.9249-7.3388c5.875-4.4385,10.2939-9.7569,13.208-16.5186,3.8818-9.0127,3.8261-20.5552,5.5039-29.1738.2236-1.146,1.3799-4.6988,5.8769,3.3242,3.1865,5.6777,4.127,9.2588,4.085,14.7754-.0645,8.2392-2.6817,12.8994-3.8653,17.6406-.957,3.832-1.2959,6.1865-.5898,7.1006,1.2119,1.5723,5.1397,1.3838,9.6914,1.2559,5.5938-.1563,12.291.2607,17.3858,2.581,2.7744,1.2637,6.3662,4.3848,6.3662,4.3848l-1.2334-3.8926-9.6202-4.7314-21.4472-1.418.4746-6.3086,3.4687-19.0811s-3.2343-10.9853-6.624-16.5576c-1.1875-1.957-6.1006-4.5688-6.4678-2.3081-.7861,4.8579-.8281,14.8008-3.4658,22.3355-1.9258,5.5039-3.8076,11.3134-7.5693,15.7695-5.4014,6.3965-20.5,14.5078-20.5,14.5078h0Z" style="fill:#f7e587; isolation:isolate; opacity:.9166; stroke-width:0px;"/><path id="uuid-961be91f-0b27-470e-a792-e07d294f1061" d="M143.1641,99.249s-.4297,2.041.6084,2.8897c2.1943,1.7998,6.9365.9033,10.5019,2.0127,3.7861,1.1796,7.1826,6.2949,7.1826,6.2949l-2.6015-7.8848-8.3584-1.5762-7.333-1.7363Z" style="fill:#f7e587; isolation:isolate; opacity:.9166; stroke-width:0px;"/><path id="uuid-227cf414-fcf1-438c-ac64-7459a725e00d" d="M145.498,116.458s-.7021,1.2656.3536,2.7783c.9502,1.3594,4.6494,1.3526,6.1113,2.1387,2.956,1.5928,5.0078,2.3057,5.0078,2.3057l-5.4023-5.4873-6.0704-1.7354Z" style="fill:#f7e587; isolation:isolate; opacity:.9166; stroke-width:0px;"/><path id="uuid-108bb166-cf88-4d03-976b-16e401432023" d="M142.7402,131.6514s-1.5517.9961-1.2949,2.4912c.3008,1.7373,2.9854,2.1142,4.3867,3.1836,1.1826.9052,2.0147.164,2.0147.164l-3.211-3.4228-1.8955-2.416Z" style="fill:rgba(134,78,1,.6667); isolation:isolate; opacity:.9166; stroke-width:0px;"/><path id="uuid-8680476d-5584-435c-b562-6ac221c5b46c" d="M83.1973,139.6221l-.0782,2.4716s9.7178-.2773,14.4278.5528c6.0293,1.0615,11.1621,5.3965,17.1894,6.4658,5.5899.9893,11.0723.9297,16.7149.3145,6.1465-.6709,12.6884-2.3467,16.4795-6.7803,1.1806-1.3789,1.3418-4.2862,1.3418-4.2862l-5.836,4.417s-10.2851,3.2149-15.6123,3.627c-4.9912.3857-10.0908-.0283-14.9795-1.1045-4.2246-.9307-7.915-3.665-12.1426-4.5742-5.7167-1.2266-17.5048-1.1035-17.5048-1.1035h0Z" style="fill:#f7e587; isolation:isolate; opacity:.9166; stroke-width:0px;"/><path id="uuid-736a9b9f-a3b0-4f96-a64b-658171c89964" d="M118.8037,33.792c-3.3213-.6528-5.2217,7.4453-5.6826,11.6279-1.2022,10.8941-2.9287,22.8379-11.3389,30.6826-5.0078,4.8731-11.1162,8.5391-17.5801,11.1368-.2587,17.6875-.5205,35.374-.7832,53.0605,8.0059-.8018,16.1094.3105,23.6114,3.8857,10.8183,5.1573,24.414,4.1651,35.4687-.0302,4.0762-1.5459,11.5049-8.5977,3.3389-10.5362-2.0098-.4775,4.5195-.9355,6.6494-1.3056,5.4561-.9502,8.1621-9.9151,3.0801-13.1787-1.6875-1.2559-8.9365-2.6133-3.6758-2.5225,6.0654.1328,11.9795-3.7197,10.1035-10.6406-1.4121-5.2061-7.1181-6.9131-12.5547-6.8203-3.5312.0605,3.9102-.1241,5.9571-2.1768,3.9785-3.9893,3.6679-11.0498-.6143-13.7334-7.4853-4.6875-17.1103-4.4873-25.7773-4.2314-3.8741.1142-4.3194-.6524-2.6036-3.8477,2.8301-8.7871,5.1895-18.5337,1.5831-27.4805-1.9815-4.9189-5.542-13.1743-8.4454-13.7456l-.7363-.144ZM118.8164,35.7017c4.7207,2.8491,6.1065,9.0908,7.8428,14.1137,3.3457,9.6758-.5156,19.8272-3.5069,29.0703-.1113,2.3174,2.8155,2.0215,4.3995,2.0215,8.7529.0078,18.413-.6416,26.0673,3.8643,4.3223,2.5439,3.376,12.084-3.3828,12.0263-2.3095-.0195-6.4687-.996-7.1631,2.1299-.1533,2.3828,2.8936,2.2119,4.4834,2.2764,5.4024.2148,12.3526.3877,12.7051,6.7598.3233,5.8252-5.164,6.2402-9.3681,6.4638-1.834.0987-5.3809-.8379-5.6534,1.8633-.2451,2.4248,3.2598,2.2608,5.6846,3.0254,7.4258,2.3516,5.8252,8.6152.4512,10.7559-2.9141,1.1601-6.417-.2383-8.8858,1.4287-1.7285,1.1709-.1836,2.8115,2.2725,3.5185,1.8525.5352,2.6348,1.4434,2.499,3.4209-.1318,1.8975-4.0381,3.6768-6.708,4.4873-10.4336,3.1621-22.7266,4.2139-32.7041-.4707-7.1269-3.3457-14.7822-4.9912-22.4668-4.1982.2481-16.5762.4961-33.1553.7451-49.7344,12.1104-4.832,23.2578-14.3223,26.3897-27.4394,2.3935-7.6753,1.6719-15.9683,4.2158-23.5733.3604-.8745,1.2441-2.3188,2.085-1.811l-.002.001Z" style="fill:#d2aa48; stroke:#d2aa48; stroke-width:3.0047px;"/><path id="uuid-651e296b-bee6-42e7-859c-1ffb45ce0bf8" d="M55.1025,87.1885v3.6269l25.8623-5.3613v-4.2578l-25.8623,5.9922Z" style="fill:#f7e587; isolation:isolate; opacity:.9166; stroke-width:0px;"/><path id="uuid-89c26201-3129-4d0c-ae6d-f01bcfa5f71d" d="M53.999,83.3223l27.9912-6.6231-.1572,5.3613-27.5185,6.3086-.3155-5.0468Z" style="fill:#b58a32; stroke-width:0px;"/><path id="uuid-bd6dc64d-b26a-4515-b2ec-db1870a8eeb5" d="M54.2539,137.623v5.2832l27.834,4.6524v-5.6758l-27.834-4.2598Z" style="fill:#f7e485; isolation:isolate; opacity:.9166; stroke-width:0px;"/><path id="uuid-fa9c45e9-73a3-4c27-906f-61ed5fe5a458" d="M54.9336,135.6924l26.4141,4.0869v4.1006l-26.5723-4.1006.1582-4.0869Z" style="fill:#b58a32; stroke-width:0px;"/><path id="uuid-aa8948ae-105d-40c2-902d-40ebeeca486b" d="M82.0947,79.8769l-27.7187,6.3125v54.2706l27.7187,4.3769v-64.96ZM80.0391,82.4365v59.9844l-23.6075-3.7149v-50.9013l23.6075-5.3711v.0029Z" style="fill:#d2aa48; stroke:#d2aa48; stroke-width:3.0047px;"/></g></g></g></svg>